<?xml version="1.0" encoding="UTF-8"?>
<svg version="1.1" xmlns="http://www.w3.org/2000/svg" width="500" height="500">
<path d="M0 0 C165 0 330 0 500 0 C500 165 500 330 500 500 C335 500 170 500 0 500 C0 335 0 170 0 0 Z " fill="#FEFEFE" transform="translate(0,0)"/>
<path d="M0 0 C1.33443649 -0.00287018 1.33443649 -0.00287018 2.6958313 -0.00579834 C4.56301153 -0.00714889 6.43020152 -0.0035322 8.29736328 0.00488281 C11.1190351 0.0155728 13.94006667 0.00496183 16.76171875 -0.0078125 C30.7774361 -0.02157827 43.12136409 1.54726122 56.5078125 5.890625 C57.59610352 6.24253906 58.68439453 6.59445313 59.80566406 6.95703125 C68.77175068 9.94307017 77.07072229 13.56412765 85.2578125 18.265625 C86.38058594 18.90242188 87.50335938 19.53921875 88.66015625 20.1953125 C103.10510914 28.74892313 116.50650853 39.34068783 127.2578125 52.265625 C127.93328125 53.03003906 128.60875 53.79445312 129.3046875 54.58203125 C139.87893516 66.86240752 148.19064493 81.25797088 154.2578125 96.265625 C154.52432617 96.91869629 154.79083984 97.57176758 155.06542969 98.24462891 C165.62440174 124.85858802 168.4020837 157.48604025 161.2578125 185.265625 C160.95037109 186.72742188 160.95037109 186.72742188 160.63671875 188.21875 C151.7596038 228.57929745 125.6087259 261.8186048 91.2890625 283.8359375 C80.81922035 290.37196638 69.96766528 295.3783635 58.2578125 299.265625 C56.897771 299.72291992 56.897771 299.72291992 55.51025391 300.18945312 C40.70449875 304.92606714 26.30429591 305.84006388 10.8828125 305.890625 C10.00792175 305.89779541 9.13303101 305.90496582 8.23162842 305.91235352 C-7.99595486 305.98393628 -24.30888155 304.06724402 -39.4921875 298.015625 C-40.64883911 297.57065674 -40.64883911 297.57065674 -41.82885742 297.11669922 C-58.93241248 290.37781776 -74.79090867 281.2895686 -88.7421875 269.265625 C-89.69738281 268.44449219 -90.65257812 267.62335938 -91.63671875 266.77734375 C-119.77863105 242.06227284 -138.01307051 206.56900546 -141.7421875 169.265625 C-142.06923921 163.82442578 -142.18208114 158.40328924 -142.1796875 152.953125 C-142.18042267 152.21706024 -142.18115784 151.48099548 -142.18191528 150.72262573 C-142.10977196 122.99304877 -134.37661399 99.03365547 -121.1953125 74.875 C-119.13416705 71.0811162 -117.36392312 67.2659062 -115.7421875 63.265625 C-116.4434375 62.9975 -117.1446875 62.729375 -117.8671875 62.453125 C-120.7421875 61.265625 -120.7421875 61.265625 -123.4296875 59.765625 C-127.14135314 58.08487075 -130.61252004 57.5010986 -134.6171875 57.078125 C-135.30554688 56.99626953 -135.99390625 56.91441406 -136.703125 56.83007812 C-138.38166107 56.63191762 -140.06179231 56.44734713 -141.7421875 56.265625 C-141.4121875 55.275625 -141.0821875 54.285625 -140.7421875 53.265625 C-128.92104686 52.81193517 -118.98081105 53.15885228 -107.7421875 57.265625 C-107.51144531 56.72035156 -107.28070313 56.17507812 -107.04296875 55.61328125 C-93.17043108 30.57605861 -58.78318707 13.46897436 -32.7421875 5.265625 C-28.43383643 4.079593 -24.12898686 3.10819489 -19.7421875 2.265625 C-18.67652809 2.02441673 -18.67652809 2.02441673 -17.58934021 1.77833557 C-11.65356785 0.47688329 -6.06654704 -0.02961052 0 0 Z " fill="#DFDFDF" transform="translate(233.7421875,97.734375)"/>
<path d="M0 0 C18.27732124 -0.68184825 30.29167116 1.84332774 44.125 14.625 C52.33246508 23.34735287 57.38211441 34.40635358 62.1555481 45.2522583 C63.75178467 48.87828648 65.37857472 52.4906527 67 56.10546875 C67.33141495 56.84659912 67.6628299 57.58772949 68.00428772 58.35131836 C71.4259418 65.9888694 74.98835375 73.5579482 78.5625 81.125 C85.89262196 96.667363 92.97587817 112.31732556 100 128 C102.77606917 125.22393083 103.93907892 121.86932035 105.46484375 118.3125 C105.98244263 117.12285645 105.98244263 117.12285645 106.51049805 115.90917969 C107.26149138 114.18262801 108.01050151 112.45521269 108.75778198 110.72705078 C110.77535697 106.06319945 112.80914749 101.40644325 114.84375 96.75 C115.2659935 95.78320312 115.688237 94.81640625 116.12327576 93.8203125 C121.41506803 81.72950581 126.87973674 69.71733778 132.34741211 57.70532227 C135.80258221 50.10822269 139.24261833 42.50909784 142.53515625 34.83984375 C143.30194702 33.0599707 143.30194702 33.0599707 144.08422852 31.24414062 C144.99676145 29.11285142 145.90030341 26.97767903 146.79272461 24.83789062 C147.37485718 23.47760742 147.37485718 23.47760742 147.96875 22.08984375 C148.29294922 21.31503662 148.61714844 20.54022949 148.95117188 19.74194336 C150 18 150 18 153 17 C154.29159936 19.58319872 154.45904513 21.87341756 154.8359375 24.74609375 C155.70341613 31.04778684 156.68561822 37.32236126 157.7265625 43.59765625 C157.8801825 44.52782562 158.03380249 45.457995 158.19207764 46.41635132 C158.83157497 50.28480157 159.47303889 54.15291062 160.11914062 58.02026367 C160.5960018 60.87881846 161.06789007 63.73815909 161.5390625 66.59765625 C161.68590485 67.46850357 161.83274719 68.33935089 161.98403931 69.23658752 C162.63366402 73.19841742 163.19249418 76.96843078 163 81 C163.88042969 80.72285156 164.76085937 80.44570312 165.66796875 80.16015625 C167.41013672 79.61681641 167.41013672 79.61681641 169.1875 79.0625 C170.33605469 78.70285156 171.48460937 78.34320313 172.66796875 77.97265625 C193.67315429 71.84101358 218.14754649 75.87423442 238 84 C239.05960938 84.34933594 240.11921875 84.69867188 241.2109375 85.05859375 C244.50009004 86.37511806 246.53693248 87.43858859 249 90 C250.97633116 95.5986217 251.55675173 101.10756015 252 107 C252.12454019 108.33349906 252.25074393 109.66684419 252.37890625 111 C252.63878805 114.00015441 252.84832958 116.99274164 253 120 C252.34 120 251.68 120 251 120 C250.72027344 119.23816406 250.44054687 118.47632813 250.15234375 117.69140625 C244.42543885 102.9414036 236.11456004 95.10633599 222.02734375 88.3203125 C205.77103965 81.23046632 187.25574176 80.91193783 170.5703125 86.8671875 C169.02124888 87.5204071 167.50367389 88.24816306 166 89 C165.63280242 96.71114916 166.7221767 103.83792981 168.15625 111.375 C168.7408675 114.4718927 169.2359922 117.5641025 169.65625 120.6875 C172.12409701 138.84366933 176.78246464 160.09988735 192 172 C199.35659879 177.04887592 205.869408 180.07363722 214.875 180.625 C216.02742187 180.69976562 217.17984375 180.77453125 218.3671875 180.8515625 C219.67042969 180.92503906 219.67042969 180.92503906 221 181 C221 181.99 221 182.98 221 184 C202.31326965 184.67071016 188.54948246 182.91368445 174.3125 169.75 C156.5442104 150.93651689 154.88285162 123.404601 152 99 C143.16590909 107.35724635 136.66572611 117.33137679 133 129 C132.64292969 130.12277344 132.28585938 131.24554688 131.91796875 132.40234375 C130.41686789 138.58788965 130.67134423 144.92339888 130.6875 151.25 C130.67138672 152.49652344 130.65527344 153.74304688 130.63867188 155.02734375 C130.63282142 166.22511614 132.48682613 176.16776921 137.6875 186.125 C138.03490234 186.80167725 138.38230469 187.47835449 138.74023438 188.17553711 C141.83912277 194.02782972 145.45424225 199.16619423 150 204 C150.57878906 204.62003906 151.15757812 205.24007812 151.75390625 205.87890625 C163.01243611 216.74837244 178.61564501 222.229615 194 223 C194.90105469 223.05285156 195.80210937 223.10570312 196.73046875 223.16015625 C216.6411173 223.77816558 235.55481712 217.06488406 250.1875 203.4375 C264.91295007 188.0331341 268.59146456 168.57203076 270 148 C270.99 148 271.98 148 273 148 C274.12953338 170.46516398 269.36483654 191.9279594 254 209 C253.505 209.598125 253.01 210.19625 252.5 210.8125 C241.36920197 223.2789938 223.19794096 228.82066009 207 230 C180.05874744 231.50718442 157.05152667 225.70050448 136.390625 207.73046875 C124.33672875 196.42537514 114.66223811 179.24681543 113.87915039 162.40014648 C113.26650673 140.07773833 115.81785144 120.80254407 130.7890625 103.31640625 C136.26502149 97.5792266 141.93663015 91.74226239 149 88 C149.66 88 150.32 88 151 88 C150.70996094 86.42025391 150.70996094 86.42025391 150.4140625 84.80859375 C145.58400005 58.1919988 145.58400005 58.1919988 146 48 C145.34 48 144.68 48 144 48 C143.82721527 48.55021317 143.65443054 49.10042633 143.47640991 49.66731262 C141.71106119 55.14235252 139.62727286 60.35026583 137.2265625 65.57421875 C136.86632492 66.36838699 136.50608734 67.16255524 136.13493347 67.98078918 C135.36607978 69.67519518 134.59536045 71.36875571 133.82290649 73.06152344 C131.78453944 77.52990568 129.76135873 82.00514791 127.73828125 86.48046875 C127.13100441 87.82303238 127.13100441 87.82303238 126.51145935 89.19271851 C121.30149368 100.73145383 116.30122326 112.35867465 111.30419922 123.99072266 C110.14119417 126.67421203 108.95659736 129.34583572 107.75390625 132.01171875 C104.50570269 139.21917542 101.72153095 146.26130851 100 154 C97 153 97 153 95.58398438 150.5078125 C95.09220703 149.39148438 94.60042969 148.27515625 94.09375 147.125 C93.81691376 146.50586731 93.54007751 145.88673462 93.25485229 145.24884033 C92.64861214 143.89013922 92.0471796 142.52928556 91.44989014 141.16662598 C90.14769483 138.19641914 88.82261324 135.23661779 87.49838257 132.27618408 C86.78701831 130.68581382 86.07678027 129.0949394 85.36758423 127.50360107 C81.5337685 118.91484217 77.56538544 110.38975785 73.59292603 101.86447144 C65.57152905 84.64527024 57.69949824 67.36549849 50 50 C47.80056706 67.13201516 46.07253199 84.27700528 44.63745117 101.48925781 C44.3086927 105.42052739 43.97014595 109.35087649 43.63085938 113.28125 C43.41608774 115.8202636 43.20187425 118.35932448 42.98828125 120.8984375 C42.88832352 122.05378998 42.78836578 123.20914246 42.68537903 124.39950562 C42.25459224 129.63875773 41.89780412 134.87586342 41.75073242 140.13134766 C41.72484543 140.99925934 41.69895844 141.86717102 41.67228699 142.76138306 C41.82734436 145.06057028 41.82734436 145.06057028 43.31636047 146.76132202 C45.7265384 148.53452482 48.07281021 148.67475669 51 149 C51 149.66 51 150.32 51 151 C39.12 151 27.24 151 15 151 C15 150.34 15 149.68 15 149 C15.88751953 148.85304688 15.88751953 148.85304688 16.79296875 148.703125 C21.77027116 147.76125374 25.55343488 146.96877196 29 143 C30.78887237 136.99435074 31.61937353 131.00618957 32.33203125 124.79296875 C32.44897842 123.81015427 32.5659256 122.82733978 32.68641663 121.81474304 C33.06688831 118.6062414 33.43990885 115.39692554 33.8125 112.1875 C34.07466099 109.95780133 34.33719789 107.72814684 34.60009766 105.49853516 C35.13841173 100.92594516 35.67353633 96.3529967 36.20654297 91.77978516 C36.84145246 86.34018669 37.487293 80.90197728 38.13902283 75.46437073 C38.61013255 71.53108822 39.07727943 67.59734163 39.54354858 63.66348267 C39.76288178 61.81824445 39.9835845 59.97316846 40.20571899 58.12826538 C40.51401645 55.56257966 40.81633818 52.99625577 41.1171875 50.4296875 C41.20750748 49.68909592 41.29782745 48.94850433 41.3908844 48.18547058 C42.63781353 37.39335671 41.41332926 31.07697582 35 22 C27.30368967 12.29541421 19.79643817 5.14159036 7.1171875 3.6640625 C4.41271489 3.40814054 1.71007076 3.18622548 -1 3 C-0.67 2.01 -0.34 1.02 0 0 Z " fill="#060606" transform="translate(93,151)"/>
<path d="M0 0 C0.66 0.66 1.32 1.32 2 2 C1.67028521 5.29714793 1.3773161 6.6226839 -1 9 C-3.5 9.25 -3.5 9.25 -6 9 C-6.66 8.34 -7.32 7.68 -8 7 C-7.75 3.9375 -7.75 3.9375 -7 1 C-4.48718205 -0.25640898 -2.78302919 -0.20872719 0 0 Z " fill="#151515" transform="translate(330,151)"/>
<path d="M0 0 C3 3 3 3 3.1875 6.1875 C3.125625 7.115625 3.06375 8.04375 3 9 C0.69 9.33 -1.62 9.66 -4 10 C-4.99 8.35 -5.98 6.7 -7 5 C-4.69 3.35 -2.38 1.7 0 0 Z " fill="#181818" transform="translate(355,180)"/>
<path d="M0 0 C3.82946843 1.45255699 5.12050295 3.42895561 7 7 C6.01 6.67 5.02 6.34 4 6 C3.67 7.32 3.34 8.64 3 10 C1.68 9.67 0.36 9.34 -1 9 C-1.33 10.32 -1.66 11.64 -2 13 C-4.475 9.04 -4.475 9.04 -7 5 C-6.34 4.67 -5.68 4.34 -5 4 C-2.96855359 4.93446535 -0.96466413 5.93224776 1 7 C0.67 4.69 0.34 2.38 0 0 Z " fill="#2B2B2B" transform="translate(168,144)"/>
<path d="M0 0 C3 1 3 1 5 4 C5.33 2.68 5.66 1.36 6 0 C6.66 0 7.32 0 8 0 C8 2.97 8 5.94 8 9 C7.01 9.33 6.02 9.66 5 10 C4.01 8.35 3.02 6.7 2 5 C1.67 6.32 1.34 7.64 1 9 C0.34 9 -0.32 9 -1 9 C-0.67 6.03 -0.34 3.06 0 0 Z " fill="#383838" transform="translate(257,122)"/>
<path d="M0 0 C3.3 0 6.6 0 10 0 C10 1.65 10 3.3 10 5 C6.25 6.125 6.25 6.125 4 5 C3.67 5.99 3.34 6.98 3 8 C2.34 8 1.68 8 1 8 C1.875 4.125 1.875 4.125 3 3 C2.01 2.67 1.02 2.34 0 2 C0 1.34 0 0.68 0 0 Z " fill="#373737" transform="translate(368,238)"/>
<path d="M0 0 C3.3 0.33 6.6 0.66 10 1 C9 5 9 5 7.37109375 6.265625 C5.58072917 7.17708333 3.79036458 8.08854167 2 9 C2.33 6.69 2.66 4.38 3 2 C2.01 2 1.02 2 0 2 C0 1.34 0 0.68 0 0 Z " fill="#3B3B3B" transform="translate(364,219)"/>
<path d="M0 0 C0.66 0.66 1.32 1.32 2 2 C1.01 2.66 0.02 3.32 -1 4 C-0.67 4.66 -0.34 5.32 0 6 C1.32 6 2.64 6 4 6 C4 6.66 4 7.32 4 8 C-0.455 9.485 -0.455 9.485 -5 11 C-5 10.34 -5 9.68 -5 9 C-4.34 8.67 -3.68 8.34 -3 8 C-3 7.01 -3 6.02 -3 5 C-4.32 5 -5.64 5 -7 5 C-7 4.34 -7 3.68 -7 3 C-4.69 2.01 -2.38 1.02 0 0 Z " fill="#252525" transform="translate(365,198)"/>
<path d="M0 0 C0.66 0 1.32 0 2 0 C1.34 1.98 0.68 3.96 0 6 C1.32 6.66 2.64 7.32 4 8 C4 8.66 4 9.32 4 10 C0.125 9.125 0.125 9.125 -1 8 C-1.33 8.99 -1.66 9.98 -2 11 C-2.66 11 -3.32 11 -4 11 C-4.33 7.7 -4.66 4.4 -5 1 C-4.34 1 -3.68 1 -3 1 C-2.67 1.99 -2.34 2.98 -2 4 C-1.34 2.68 -0.68 1.36 0 0 Z " fill="#292929" transform="translate(223,122)"/>
<path d="M0 0 C0.66 0 1.32 0 2 0 C3.5625 2.8125 3.5625 2.8125 5 6 C4.67 6.99 4.34 7.98 4 9 C1.525 8.01 1.525 8.01 -1 7 C-1.33 7.99 -1.66 8.98 -2 10 C-2.6875 8.375 -2.6875 8.375 -3 6 C-1.5625 2.75 -1.5625 2.75 0 0 Z " fill="#212121" transform="translate(240,121)"/>
<path d="M0 0 C0.103125 0.61875 0.20625 1.2375 0.3125 1.875 C0.87525373 4.36526484 0.87525373 4.36526484 4 6 C4.33 5.01 4.66 4.02 5 3 C5.66 3 6.32 3 7 3 C5.87548273 5.9719385 4.77706209 8.33440687 3 11 C2.34 11 1.68 11 1 11 C1 9.68 1 8.36 1 7 C-0.65 7.33 -2.3 7.66 -4 8 C-2.25 2.25 -2.25 2.25 0 0 Z " fill="#272727" transform="translate(309,138)"/>
<path d="M0 0 C2.52259061 1.97420135 2.9929808 2.96745642 3.6875 6.1875 C3.790625 7.115625 3.89375 8.04375 4 9 C1 11 1 11 -1 10.875 C-3.60680246 9.73452392 -4.56849881 8.43355203 -6 6 C-6 5.01 -6 4.02 -6 3 C-5.34 3 -4.68 3 -4 3 C-3.34 4.98 -2.68 6.96 -2 9 C-1.01 8.67 -0.02 8.34 1 8 C0.67 5.36 0.34 2.72 0 0 Z " fill="#292929" transform="translate(187,133)"/>
<path d="M0 0 C-0.66 1.32 -1.32 2.64 -2 4 C-2.66 4 -3.32 4 -4 4 C-4 5.32 -4 6.64 -4 8 C-1.0280615 6.87548273 1.33440687 5.77706209 4 4 C4 7 4 7 2.3125 8.75 C0 10 0 10 -2.75 9.6875 C-3.4925 9.460625 -4.235 9.23375 -5 9 C-5.75 6.75 -5.75 6.75 -6 4 C-2.86486486 0 -2.86486486 0 0 0 Z " fill="#272727" transform="translate(343,164)"/>
<path d="M0 0 C1.32 0 2.64 0 4 0 C3.67 0.66 3.34 1.32 3 2 C2.34 2 1.68 2 1 2 C0.67 2.66 0.34 3.32 0 4 C1.65 4 3.3 4 5 4 C5.625 5.875 5.625 5.875 6 8 C5.34 8.66 4.68 9.32 4 10 C1.875 9.625 1.875 9.625 0 9 C0.33 8.34 0.66 7.68 1 7 C1.99 7.33 2.98 7.66 4 8 C4 7.34 4 6.68 4 6 C2.35 5.67 0.7 5.34 -1 5 C-1 1 -1 1 0 0 Z " fill="#252525" transform="translate(202,127)"/>
<path d="M0 0 C0.99 0 1.98 0 3 0 C3 5.28 3 10.56 3 16 C2.67 16 2.34 16 2 16 C1.67 14.02 1.34 12.04 1 10 C0.67 10 0.34 10 0 10 C0 6.7 0 3.4 0 0 Z " fill="#3A3A3A" transform="translate(363,299)"/>
<path d="M0 0 C0.598125 0.20625 1.19625 0.4125 1.8125 0.625 C1.4825 1.945 1.1525 3.265 0.8125 4.625 C-0.5075 4.955 -1.8275 5.285 -3.1875 5.625 C-3.8475 4.305 -4.5075 2.985 -5.1875 1.625 C-2.1875 -0.375 -2.1875 -0.375 0 0 Z " fill="#C4C4C4" transform="translate(355.1875,183.375)"/>
<path d="M0 0 C2.0625 0.4375 2.0625 0.4375 4 1 C3.67 2.65 3.34 4.3 3 6 C1.35 5.67 -0.3 5.34 -2 5 C-1.125 1.125 -1.125 1.125 0 0 Z " fill="#CECECE" transform="translate(326,152)"/>
<path d="M0 0 C0 2 0 4 0 6 C0.33 6.66 0.66 7.32 1 8 C-2.3 7.01 -5.6 6.02 -9 5 C-9 4.34 -9 3.68 -9 3 C-8.43410156 2.86722656 -7.86820312 2.73445313 -7.28515625 2.59765625 C-6.18494141 2.33275391 -6.18494141 2.33275391 -5.0625 2.0625 C-4.33160156 1.88847656 -3.60070312 1.71445312 -2.84765625 1.53515625 C-1.00030102 1.16112431 -1.00030102 1.16112431 0 0 Z " fill="#2C2C2C" transform="translate(378,255)"/>
<path d="M0 0 C3.82946843 1.45255699 5.12050295 3.42895561 7 7 C6.38125 6.649375 5.7625 6.29875 5.125 5.9375 C4.073125 5.4734375 4.073125 5.4734375 3 5 C2.01 5.495 2.01 5.495 1 6 C0.67 4.02 0.34 2.04 0 0 Z " fill="#191919" transform="translate(168,144)"/>
<path d="M0 0 C0.66 0 1.32 0 2 0 C2.66 1.65 3.32 3.3 4 5 C2.68 5.33 1.36 5.66 0 6 C-0.38218767 4.34385343 -0.71395102 2.67542976 -1 1 C-0.67 0.67 -0.34 0.34 0 0 Z " fill="#4E4E4E" transform="translate(240,121)"/>
<path d="M0 0 C0.33 0 0.66 0 1 0 C1.1546875 1.175625 1.1546875 1.175625 1.3125 2.375 C1.77595022 5.33045181 1.77595022 5.33045181 5 7 C3.125 7.625 3.125 7.625 1 8 C0.34 7.34 -0.32 6.68 -1 6 C-0.625 2.875 -0.625 2.875 0 0 Z " fill="#383838" transform="translate(323,152)"/>
<path d="M0 0 C0.75 1.75 0.75 1.75 1 4 C-0.9375 6.25 -0.9375 6.25 -3 8 C-3.33 7.34 -3.66 6.68 -4 6 C-2.68 4.02 -1.36 2.04 0 0 Z " fill="#1D1D1D" transform="translate(309,138)"/>
<path d="M0 0 C0.99 0.33 1.98 0.66 3 1 C3 1.66 3 2.32 3 3 C2.34 3 1.68 3 1 3 C1 4.98 1 6.96 1 9 C0.34 9 -0.32 9 -1 9 C-0.67 6.03 -0.34 3.06 0 0 Z " fill="#181818" transform="translate(257,122)"/>
</svg>
