<?xml version="1.0" encoding="UTF-8"?>
<svg version="1.1" xmlns="http://www.w3.org/2000/svg" width="500" height="500">
<path d="M0 0 C165 0 330 0 500 0 C500 165 500 330 500 500 C335 500 170 500 0 500 C0 335 0 170 0 0 Z " fill="#000000" transform="translate(0,0)"/>
<path d="M0 0 C2.56055697 -0.00966613 5.12029576 -0.0407534 7.68066406 -0.07226562 C22.48937941 -0.16981609 35.95267601 1.86299104 49.96191406 6.92773438 C50.93676758 7.27441162 51.91162109 7.62108887 52.91601562 7.97827148 C70.99280892 14.57044199 86.44105743 24.34706275 101.46191406 36.24023438 C102.41324219 36.95824219 103.36457031 37.67625 104.34472656 38.41601562 C105.39273438 39.31900391 105.39273438 39.31900391 106.46191406 40.24023438 C106.46191406 40.90023437 106.46191406 41.56023437 106.46191406 42.24023438 C107.02652344 42.47226563 107.59113281 42.70429688 108.17285156 42.94335938 C128.54131997 54.48317424 143.54135207 89.18849431 149.55175781 110.57617188 C150.00228516 112.38988281 150.00228516 112.38988281 150.46191406 114.24023438 C150.64383301 114.95727539 150.82575195 115.67431641 151.01318359 116.41308594 C160.44030868 155.03003281 154.0984996 197.11035106 133.71923828 231.20898438 C111.62200444 266.90781652 77.26704315 292.7445789 36.30566406 302.41601562 C35.03722656 302.68800781 33.76878906 302.96 32.46191406 303.24023438 C31.79635498 303.41828613 31.1307959 303.59633789 30.44506836 303.77978516 C22.34266535 305.75906514 14.15604822 305.54170352 5.86889648 305.50097656 C3.29744482 305.49032973 0.72670286 305.50087747 -1.84472656 305.51367188 C-15.31286862 305.52680496 -28.41141007 304.68906055 -41.35058594 300.61523438 C-42.18678467 300.35653564 -43.0229834 300.09783691 -43.88452148 299.83129883 C-84.68144609 286.77305395 -116.77387038 258.42473325 -136.60375977 220.67944336 C-146.97728193 199.90046893 -151.7177936 177.95684397 -151.77832031 154.91381836 C-151.78796042 152.70647521 -151.819038 150.50009204 -151.85058594 148.29296875 C-152.06557078 119.28276785 -142.29499352 88.32421424 -124.53808594 65.24023438 C-116.86739391 70.78924563 -111.74506785 78.82627054 -107.53808594 87.24023438 C-107.35619266 92.80194206 -107.74827721 98.15439784 -108.42089844 103.66992188 C-108.51556396 104.47786194 -108.61022949 105.285802 -108.70776367 106.1182251 C-109.02143381 108.78448438 -109.34192953 111.44986719 -109.66308594 114.11523438 C-109.88715074 115.99524788 -110.11094055 117.87529418 -110.33447266 119.75537109 C-110.68968408 122.74010125 -111.04559878 125.72473942 -111.40359497 128.70913696 C-112.19134617 135.28374779 -112.95689403 141.86056965 -113.70730591 148.43954468 C-114.2257783 152.97632896 -114.75217483 157.51217585 -115.27972412 162.0479126 C-115.53377038 164.24623587 -115.78466404 166.44492593 -116.0322876 168.64398193 C-116.38198502 171.74228816 -116.74386188 174.83895627 -117.10839844 177.93554688 C-117.20830078 178.84637024 -117.30820313 179.7571936 -117.41113281 180.69561768 C-118.21960583 187.40954736 -119.17835867 194.46408465 -123.66308594 199.74023438 C-127.55572315 201.77117553 -131.19625901 202.05104802 -135.53808594 202.24023438 C-135.53808594 202.90023437 -135.53808594 203.56023437 -135.53808594 204.24023438 C-123.65808594 204.24023438 -111.77808594 204.24023438 -99.53808594 204.24023438 C-99.53808594 203.58023438 -99.53808594 202.92023438 -99.53808594 202.24023438 C-100.44558594 202.32273437 -101.35308594 202.40523437 -102.28808594 202.49023438 C-105.53808594 202.24023438 -105.53808594 202.24023438 -107.91308594 200.92773438 C-112.57782789 193.21296884 -109.06308444 180.12951232 -108.29589844 171.38085938 C-108.16586171 169.86312437 -108.03613779 168.34536254 -107.90670776 166.82757568 C-107.63560077 163.66050197 -107.36126499 160.49373021 -107.08447266 157.32714844 C-106.73376463 153.31285926 -106.39032377 149.29798977 -106.04925728 145.28287125 C-105.78251881 142.15094885 -105.51224265 139.01933913 -105.24093246 135.88780975 C-105.11321493 134.40985156 -104.98644187 132.93181137 -104.86072159 131.45368195 C-104.02554948 121.66859996 -102.92007715 111.96298518 -101.53808594 102.24023438 C-98.51256816 103.75299326 -98.09342479 106.05174757 -96.72949219 109.11523438 C-96.451241 109.73436707 -96.17298981 110.35349976 -95.88630676 110.99139404 C-95.2759523 112.35091248 -94.66845798 113.71171759 -94.06341553 115.0736084 C-92.39507604 118.82782172 -90.70548156 122.57247081 -89.01855469 126.31835938 C-88.65981262 127.11638977 -88.30107056 127.91442017 -87.93145752 128.7366333 C-83.67359219 138.1922906 -79.29027029 147.58939327 -74.91308594 156.99023438 C-70.38384122 166.71819122 -65.86179916 176.44660132 -61.51074219 186.25585938 C-61.20418701 186.9461322 -60.89763184 187.63640503 -60.58178711 188.34759521 C-59.16764159 191.53633777 -57.76217754 194.72852591 -56.36962891 197.92675781 C-55.64670654 199.56692871 -55.64670654 199.56692871 -54.90917969 201.24023438 C-54.49595459 202.18898438 -54.08272949 203.13773438 -53.65698242 204.11523438 C-52.72246013 206.39099081 -52.72246013 206.39099081 -50.53808594 207.24023438 C-50.45856689 206.36890869 -50.45856689 206.36890869 -50.37744141 205.47998047 C-49.04543347 195.53769337 -44.75810952 186.91184902 -40.66308594 177.86523438 C-39.86620965 176.08123822 -39.07049752 174.29672165 -38.27587891 172.51171875 C-36.59083582 168.73123921 -34.89903628 164.95388828 -33.20214844 161.17871094 C-30.4625754 155.07967071 -27.74809809 148.96964394 -25.03808594 142.85742188 C-20.88040342 133.48231734 -16.71475817 124.11080507 -12.54248047 114.7421875 C-10.53862944 110.24259644 -8.53794128 105.74160254 -6.53808594 101.24023438 C-5.87808594 101.24023438 -5.21808594 101.24023438 -4.53808594 101.24023438 C-3.82148345 106.13257102 -3.10954285 111.02555526 -2.40185547 115.91918945 C-2.16061377 117.58278576 -1.91811407 119.24620017 -1.67431641 120.90942383 C-1.32348589 123.30437906 -0.97723059 125.69995866 -0.63183594 128.09570312 C-0.46778259 129.2053669 -0.46778259 129.2053669 -0.30041504 130.33744812 C0.75056415 137.69033745 0.75056415 137.69033745 0.46191406 141.24023438 C-1.15527344 142.72460938 -1.15527344 142.72460938 -3.41308594 143.99023438 C-18.81492769 153.48319344 -29.50066701 168.67555277 -34.47558594 186.05273438 C-35.77206973 192.59152218 -35.84711695 199.15061675 -35.91308594 205.80273438 C-35.92718506 206.84341064 -35.94128418 207.88408691 -35.95581055 208.95629883 C-35.83927325 227.68930131 -28.25283319 245.37881503 -15.41308594 258.92773438 C-9.67554586 264.43012936 -3.51933781 268.48109875 3.46191406 272.24023438 C4.47898438 272.79582031 5.49605469 273.35140625 6.54394531 273.92382812 C28.18656483 284.84041986 54.0708665 285.06394833 77.01269531 278.17382812 C93.06978199 272.45667506 104.12775403 262.98842933 112.46191406 248.24023438 C113.15800781 247.02980469 113.15800781 247.02980469 113.86816406 245.79492188 C120.77220986 232.36571083 122.04656256 216.10981804 122.46191406 201.24023438 C121.47191406 201.24023438 120.48191406 201.24023438 119.46191406 201.24023438 C119.49671875 201.90925781 119.53152344 202.57828125 119.56738281 203.26757812 C120.09687797 222.05204926 115.20728601 239.99907306 102.46191406 254.24023438 C101.841875 254.96339844 101.22183594 255.6865625 100.58300781 256.43164062 C90.22889068 267.70103883 74.67782221 275.55095634 59.32495117 276.41723633 C55.68303072 276.48414126 52.04184738 276.52509831 48.39941406 276.55273438 C47.15224609 276.58173828 45.90507812 276.61074219 44.62011719 276.640625 C27.34895841 276.7573827 12.08142787 270.34349641 -0.4296875 258.4909668 C-14.15626274 244.89558116 -20.65154056 227.9543293 -20.96948242 208.86108398 C-21.00547023 186.77464909 -16.86473221 170.73215729 -1.45605469 154.10351562 C0.46191406 152.24023438 0.46191406 152.24023438 2.46191406 151.24023438 C2.55690186 152.07981689 2.65188965 152.91939941 2.74975586 153.78442383 C7.27950237 195.70225343 7.27950237 195.70225343 31.48925781 228.95507812 C43.03190388 236.98368395 56.98600799 236.97152239 70.46191406 237.24023438 C70.46191406 236.25023437 70.46191406 235.26023437 70.46191406 234.24023438 C69.63949219 234.28664063 68.81707031 234.33304688 67.96972656 234.38085938 C54.47803501 234.81708035 46.32805804 230.54802993 36.59082031 221.50195312 C23.80851588 208.20721778 20.28592013 189.24619261 17.77441406 171.67773438 C17.45732606 169.52332304 17.1374067 167.36935706 16.81596375 165.21559143 C16.52940009 163.28629353 16.24995265 161.35594253 15.97094727 159.42553711 C15.57832145 156.96865987 15.07471832 154.64423422 14.46191406 152.24023438 C14.39566899 150.49136456 14.37638811 148.7402069 14.39941406 146.99023438 C14.4084375 146.09820312 14.41746094 145.20617187 14.42675781 144.28710938 C14.44416016 143.27390625 14.44416016 143.27390625 14.46191406 142.24023438 C29.36198466 133.93057962 45.82402809 133.22718132 62.18847656 137.27148438 C76.01242746 141.36258202 88.89249879 148.36191813 96.15332031 161.24023438 C100.46191406 169.55751976 100.46191406 169.55751976 100.46191406 173.24023438 C101.12191406 173.24023438 101.78191406 173.24023438 102.46191406 173.24023438 C101.82050601 168.8020829 101.17303453 164.36483704 100.52441406 159.92773438 C100.25081055 158.0337793 100.25081055 158.0337793 99.97167969 156.1015625 C99.79443359 154.89306641 99.6171875 153.68457031 99.43457031 152.43945312 C99.272229 151.32401123 99.1098877 150.20856934 98.94262695 149.05932617 C98.52404451 146.17285899 98.52404451 146.17285899 97.46191406 143.24023438 C94.99347734 141.76522985 92.62124319 140.51052864 90.02441406 139.30273438 C89.27321289 138.95009521 88.52201172 138.59745605 87.74804688 138.23413086 C79.58775691 134.58191999 71.21966417 132.82199128 62.46191406 131.24023438 C61.28423462 130.97871582 61.28423462 130.97871582 60.08276367 130.71191406 C45.6096578 128.10715947 29.63189187 129.59718106 15.54785156 133.46289062 C14.0203125 133.84767578 14.0203125 133.84767578 12.46191406 134.24023438 C10.9223135 132.70063381 11.10101356 131.09549801 10.84863281 128.95507812 C10.73704834 128.0437915 10.62546387 127.13250488 10.51049805 126.19360352 C10.39134033 125.1983667 10.27218262 124.20312988 10.14941406 123.17773438 C9.09275203 114.68105024 7.8505365 106.24089297 6.39941406 97.80273438 C4.82556497 88.63641764 3.49500514 79.48368087 2.46191406 70.24023438 C0.14918346 72.34942405 -1.17619417 74.21633177 -2.42895508 77.0769043 C-2.77172485 77.8500145 -3.11449463 78.62312469 -3.46765137 79.41966248 C-4.01491882 80.6824276 -4.01491882 80.6824276 -4.57324219 81.97070312 C-4.96411011 82.85681778 -5.35497803 83.74293243 -5.75769043 84.65589905 C-7.04488015 87.5771496 -8.32257624 90.50245757 -9.60058594 93.42773438 C-10.95137503 96.49844201 -12.30471516 99.56801714 -13.65818787 102.63754272 C-14.58309754 104.73552378 -15.50721237 106.83385542 -16.43055725 108.93252563 C-20.5569388 118.30639145 -24.75182184 127.64848872 -28.96780396 136.98233032 C-35.91484324 152.36261377 -42.79079753 167.77106337 -49.53808594 183.24023438 C-52.21688053 179.97813775 -53.86668825 176.60243493 -55.58496094 172.75585938 C-55.87268875 172.11645416 -56.16041656 171.47704895 -56.4568634 170.81826782 C-57.07877661 169.43541148 -57.69856034 168.05159588 -58.31643677 166.66693115 C-59.98748661 162.923431 -61.67518535 159.18745099 -63.36230469 155.45117188 C-63.70917831 154.68221588 -64.05605194 153.91325989 -64.41343689 153.1210022 C-68.19618501 144.75261099 -72.10791884 136.44607607 -76.03262329 128.14355469 C-79.54069474 120.71845252 -82.99132034 113.27492627 -86.31152344 105.76367188 C-86.62099411 105.06639984 -86.93046478 104.36912781 -87.24931335 103.65072632 C-88.72010871 100.33589995 -90.18052517 97.01735527 -91.62036133 93.68896484 C-97.70023233 79.94228288 -105.37835691 67.13607179 -118.53808594 59.24023438 C-117.94979612 56.03368366 -117.0093173 54.29972244 -114.79980469 51.91992188 C-114.23334229 51.30721436 -113.66687988 50.69450684 -113.08325195 50.06323242 C-112.47022217 49.42039307 -111.85719238 48.77755371 -111.22558594 48.11523438 C-110.59257568 47.4472583 -109.95956543 46.77928223 -109.30737305 46.09106445 C-80.07275087 15.69189138 -41.81940996 0.09508013 0 0 Z " fill="#DFDFDF" transform="translate(243.5380859375,97.759765625)"/>
<path d="M0 0 C0.66 0.66 1.32 1.32 2 2 C1.67028521 5.29714793 1.3773161 6.6226839 -1 9 C-3.5 9.25 -3.5 9.25 -6 9 C-6.66 8.34 -7.32 7.68 -8 7 C-7.75 3.9375 -7.75 3.9375 -7 1 C-4.48718205 -0.25640898 -2.78302919 -0.20872719 0 0 Z " fill="#151515" transform="translate(330,151)"/>
<path d="M0 0 C3 3 3 3 3.1875 6.1875 C3.125625 7.115625 3.06375 8.04375 3 9 C0.69 9.33 -1.62 9.66 -4 10 C-4.99 8.35 -5.98 6.7 -7 5 C-4.69 3.35 -2.38 1.7 0 0 Z " fill="#181818" transform="translate(355,180)"/>
<path d="M0 0 C3.82946843 1.45255699 5.12050295 3.42895561 7 7 C6.01 6.67 5.02 6.34 4 6 C3.67 7.32 3.34 8.64 3 10 C1.68 9.67 0.36 9.34 -1 9 C-1.33 10.32 -1.66 11.64 -2 13 C-4.475 9.04 -4.475 9.04 -7 5 C-6.34 4.67 -5.68 4.34 -5 4 C-2.96855359 4.93446535 -0.96466413 5.93224776 1 7 C0.67 4.69 0.34 2.38 0 0 Z " fill="#2B2B2B" transform="translate(168,144)"/>
<path d="M0 0 C3 1 3 1 5 4 C5.33 2.68 5.66 1.36 6 0 C6.66 0 7.32 0 8 0 C8 2.97 8 5.94 8 9 C7.01 9.33 6.02 9.66 5 10 C4.01 8.35 3.02 6.7 2 5 C1.67 6.32 1.34 7.64 1 9 C0.34 9 -0.32 9 -1 9 C-0.67 6.03 -0.34 3.06 0 0 Z " fill="#383838" transform="translate(257,122)"/>
<path d="M0 0 C3.3 0 6.6 0 10 0 C10 1.65 10 3.3 10 5 C6.25 6.125 6.25 6.125 4 5 C3.67 5.99 3.34 6.98 3 8 C2.34 8 1.68 8 1 8 C1.875 4.125 1.875 4.125 3 3 C2.01 2.67 1.02 2.34 0 2 C0 1.34 0 0.68 0 0 Z " fill="#373737" transform="translate(368,238)"/>
<path d="M0 0 C3.3 0.33 6.6 0.66 10 1 C9 5 9 5 7.37109375 6.265625 C5.58072917 7.17708333 3.79036458 8.08854167 2 9 C2.33 6.69 2.66 4.38 3 2 C2.01 2 1.02 2 0 2 C0 1.34 0 0.68 0 0 Z " fill="#3B3B3B" transform="translate(364,219)"/>
<path d="M0 0 C0.66 0.66 1.32 1.32 2 2 C1.01 2.66 0.02 3.32 -1 4 C-0.67 4.66 -0.34 5.32 0 6 C1.32 6 2.64 6 4 6 C4 6.66 4 7.32 4 8 C-0.455 9.485 -0.455 9.485 -5 11 C-5 10.34 -5 9.68 -5 9 C-4.34 8.67 -3.68 8.34 -3 8 C-3 7.01 -3 6.02 -3 5 C-4.32 5 -5.64 5 -7 5 C-7 4.34 -7 3.68 -7 3 C-4.69 2.01 -2.38 1.02 0 0 Z " fill="#252525" transform="translate(365,198)"/>
<path d="M0 0 C0.66 0 1.32 0 2 0 C1.34 1.98 0.68 3.96 0 6 C1.32 6.66 2.64 7.32 4 8 C4 8.66 4 9.32 4 10 C0.125 9.125 0.125 9.125 -1 8 C-1.33 8.99 -1.66 9.98 -2 11 C-2.66 11 -3.32 11 -4 11 C-4.33 7.7 -4.66 4.4 -5 1 C-4.34 1 -3.68 1 -3 1 C-2.67 1.99 -2.34 2.98 -2 4 C-1.34 2.68 -0.68 1.36 0 0 Z " fill="#292929" transform="translate(223,122)"/>
<path d="M0 0 C0.66 0 1.32 0 2 0 C3.5625 2.8125 3.5625 2.8125 5 6 C4.67 6.99 4.34 7.98 4 9 C1.525 8.01 1.525 8.01 -1 7 C-1.33 7.99 -1.66 8.98 -2 10 C-2.6875 8.375 -2.6875 8.375 -3 6 C-1.5625 2.75 -1.5625 2.75 0 0 Z " fill="#212121" transform="translate(240,121)"/>
<path d="M0 0 C0.103125 0.61875 0.20625 1.2375 0.3125 1.875 C0.87525373 4.36526484 0.87525373 4.36526484 4 6 C4.33 5.01 4.66 4.02 5 3 C5.66 3 6.32 3 7 3 C5.87548273 5.9719385 4.77706209 8.33440687 3 11 C2.34 11 1.68 11 1 11 C1 9.68 1 8.36 1 7 C-0.65 7.33 -2.3 7.66 -4 8 C-2.25 2.25 -2.25 2.25 0 0 Z " fill="#272727" transform="translate(309,138)"/>
<path d="M0 0 C2.52259061 1.97420135 2.9929808 2.96745642 3.6875 6.1875 C3.790625 7.115625 3.89375 8.04375 4 9 C1 11 1 11 -1 10.875 C-3.60680246 9.73452392 -4.56849881 8.43355203 -6 6 C-6 5.01 -6 4.02 -6 3 C-5.34 3 -4.68 3 -4 3 C-3.34 4.98 -2.68 6.96 -2 9 C-1.01 8.67 -0.02 8.34 1 8 C0.67 5.36 0.34 2.72 0 0 Z " fill="#292929" transform="translate(187,133)"/>
<path d="M0 0 C-0.66 1.32 -1.32 2.64 -2 4 C-2.66 4 -3.32 4 -4 4 C-4 5.32 -4 6.64 -4 8 C-1.0280615 6.87548273 1.33440687 5.77706209 4 4 C4 7 4 7 2.3125 8.75 C0 10 0 10 -2.75 9.6875 C-3.4925 9.460625 -4.235 9.23375 -5 9 C-5.75 6.75 -5.75 6.75 -6 4 C-2.86486486 0 -2.86486486 0 0 0 Z " fill="#272727" transform="translate(343,164)"/>
<path d="M0 0 C1.32 0 2.64 0 4 0 C3.67 0.66 3.34 1.32 3 2 C2.34 2 1.68 2 1 2 C0.67 2.66 0.34 3.32 0 4 C1.65 4 3.3 4 5 4 C5.625 5.875 5.625 5.875 6 8 C5.34 8.66 4.68 9.32 4 10 C1.875 9.625 1.875 9.625 0 9 C0.33 8.34 0.66 7.68 1 7 C1.99 7.33 2.98 7.66 4 8 C4 7.34 4 6.68 4 6 C2.35 5.67 0.7 5.34 -1 5 C-1 1 -1 1 0 0 Z " fill="#252525" transform="translate(202,127)"/>
<path d="M0 0 C0.598125 0.20625 1.19625 0.4125 1.8125 0.625 C1.4825 1.945 1.1525 3.265 0.8125 4.625 C-0.5075 4.955 -1.8275 5.285 -3.1875 5.625 C-3.8475 4.305 -4.5075 2.985 -5.1875 1.625 C-2.1875 -0.375 -2.1875 -0.375 0 0 Z " fill="#C4C4C4" transform="translate(355.1875,183.375)"/>
<path d="M0 0 C2.0625 0.4375 2.0625 0.4375 4 1 C3.67 2.65 3.34 4.3 3 6 C1.35 5.67 -0.3 5.34 -2 5 C-1.125 1.125 -1.125 1.125 0 0 Z " fill="#CECECE" transform="translate(326,152)"/>
<path d="M0 0 C0 2 0 4 0 6 C0.33 6.66 0.66 7.32 1 8 C-2.3 7.01 -5.6 6.02 -9 5 C-9 4.34 -9 3.68 -9 3 C-8.43410156 2.86722656 -7.86820312 2.73445313 -7.28515625 2.59765625 C-6.18494141 2.33275391 -6.18494141 2.33275391 -5.0625 2.0625 C-4.33160156 1.88847656 -3.60070312 1.71445312 -2.84765625 1.53515625 C-1.00030102 1.16112431 -1.00030102 1.16112431 0 0 Z " fill="#2C2C2C" transform="translate(378,255)"/>
<path d="M0 0 C3.82946843 1.45255699 5.12050295 3.42895561 7 7 C6.38125 6.649375 5.7625 6.29875 5.125 5.9375 C4.073125 5.4734375 4.073125 5.4734375 3 5 C2.01 5.495 2.01 5.495 1 6 C0.67 4.02 0.34 2.04 0 0 Z " fill="#191919" transform="translate(168,144)"/>
<path d="M0 0 C0.66 0 1.32 0 2 0 C2.66 1.65 3.32 3.3 4 5 C2.68 5.33 1.36 5.66 0 6 C-0.38218767 4.34385343 -0.71395102 2.67542976 -1 1 C-0.67 0.67 -0.34 0.34 0 0 Z " fill="#4E4E4E" transform="translate(240,121)"/>
<path d="M0 0 C0.33 0 0.66 0 1 0 C1.1546875 1.175625 1.1546875 1.175625 1.3125 2.375 C1.77595022 5.33045181 1.77595022 5.33045181 5 7 C3.125 7.625 3.125 7.625 1 8 C0.34 7.34 -0.32 6.68 -1 6 C-0.625 2.875 -0.625 2.875 0 0 Z " fill="#383838" transform="translate(323,152)"/>
<path d="M0 0 C0.75 1.75 0.75 1.75 1 4 C-0.9375 6.25 -0.9375 6.25 -3 8 C-3.33 7.34 -3.66 6.68 -4 6 C-2.68 4.02 -1.36 2.04 0 0 Z " fill="#1D1D1D" transform="translate(309,138)"/>
<path d="M0 0 C0.99 0.33 1.98 0.66 3 1 C3 1.66 3 2.32 3 3 C2.34 3 1.68 3 1 3 C1 4.98 1 6.96 1 9 C0.34 9 -0.32 9 -1 9 C-0.67 6.03 -0.34 3.06 0 0 Z " fill="#181818" transform="translate(257,122)"/>
</svg>
