<?xml version="1.0" standalone="no"?>
<!DOCTYPE svg PUBLIC "-//W3C//DTD SVG 20010904//EN"
 "http://www.w3.org/TR/2001/REC-SVG-20010904/DTD/svg10.dtd">
<svg version="1.0" xmlns="http://www.w3.org/2000/svg"
 width="1000.000000pt" height="1000.000000pt" viewBox="0 0 500.000000 500.000000"
 preserveAspectRatio="xMidYMid meet">

<g transform="translate(0.000000,500.000000) scale(0.100000,-0.100000)"
fill="#000000" stroke="none">
<path d="M900 3310 c0 -19 7 -20 90 -20 l90 0 0 -740 0 -740 -90 0 c-83 0 -90
-1 -90 -20 0 -19 7 -20 206 -20 190 0 205 1 202 18 -3 14 -17 17 -96 20 l-92
3 0 717 1 717 33 -90 c17 -49 133 -380 257 -734 123 -354 230 -646 237 -648 7
-3 15 -3 18 -1 2 3 113 317 245 699 133 382 247 710 254 729 12 30 14 -75 14
-677 l1 -713 -90 0 c-83 0 -90 -1 -90 -20 0 -20 7 -20 295 -20 288 0 295 0
295 20 0 19 -7 20 -90 20 l-90 0 0 740 0 740 90 0 c84 0 90 1 90 20 0 20 -5
20 -212 18 l-213 -3 -205 -592 c-112 -326 -208 -587 -211 -580 -4 7 -100 274
-215 595 l-208 582 -213 0 c-206 0 -213 -1 -213 -20z"/>
<path d="M3178 3310 c-220 -37 -408 -188 -518 -415 -69 -143 -85 -212 -84
-375 0 -157 19 -243 85 -374 52 -104 94 -160 188 -248 126 -119 263 -178 411
-178 131 0 224 33 326 117 l57 46 69 -73 c45 -48 72 -70 79 -63 13 13 7 465
-6 470 -6 2 -27 -29 -45 -69 -132 -275 -291 -398 -504 -386 -178 10 -286 104
-342 299 -36 123 -47 272 -41 538 5 209 8 247 30 332 54 208 139 302 301 335
212 44 414 -66 515 -279 21 -45 42 -91 45 -102 17 -48 26 21 26 205 0 140 -3
199 -12 208 -10 10 -25 0 -69 -44 l-58 -57 -48 31 c-118 76 -265 105 -405 82z"/>
</g>
</svg>